<svg height="251.169141" viewBox="0 0 132.19 83.51" width="398.138081" xmlns="http://www.w3.org/2000/svg" xmlns:xlink="http://www.w3.org/1999/xlink"><clipPath id="a"><path d="m-167.78-508.2h468v612h-468z"/></clipPath><clipPath id="b"><path d="m-4.74-3.09v102.57h142.63v-103.28z"/></clipPath><g clip-path="url(#a)"><g clip-path="url(#b)"><path d="m97.53 73.93a28.44 28.44 0 0 0 11.58-6.93c.2.2.1.17.34.34a24.6 24.6 0 0 0 -2.35 9.45 34.33 34.33 0 0 0 -9.1-2.28 6.21 6.21 0 0 1 -.44-.58" fill="#00a0af"/><path d="m113 63.25a36.41 36.41 0 0 0 5.83-11.63c.51.23.24.17.65.37-.14 1.45.79 6.9 2.9 9.07-1.52.34-7.48 1.41-8.83 2.81-.36-.28-.39-.5-.55-.62" fill="#00a0af"/><path d="m110.17 14.62c5.63 4.57 8.82 11.37 9.54 19.2l5.77-11.58z" fill="#00a0af"/><path d="m109.5 16c5.66 5.64 8.45 11.84 8.85 20.6l-15.35-7.66z" fill="#00a0af"/><path d="m92.69 74.74v.75a22.33 22.33 0 0 0 -8.2 5 30.29 30.29 0 0 0 -4.87-8.06c.35-.37.47-.53.55-.62a23.16 23.16 0 0 0 8.35 2.75 24.39 24.39 0 0 0 4.17.15" fill="#00a0af"/><g fill="#236bb3"><path d="m17 36.79c0 .24-.09.39-.33.39-.78 0-1-3.86-5.7-3.86-5.07 0-7.58 4.35-7.58 8.88a9.89 9.89 0 0 0 1.87 5.91 7 7 0 0 0 5.74 3.2c4.67 0 5-4.74 5.85-4.74a.32.32 0 0 1 .33.39l-.18 2.45c-.06.94 0 1-1 1.45a12.26 12.26 0 0 1 -5.47 1.26 9.94 9.94 0 0 1 -9.83-9.9c0-5.58 5-9.74 10.48-9.74a17.28 17.28 0 0 1 4.77.81c.87.3.75.69.84 1.54z"/><path d="m23.82 39.93c0 .15.09.3.24.3a.72.72 0 0 0 .36-.21 5.55 5.55 0 0 1 4.41-1.9 4.26 4.26 0 0 1 3.47 1.45c.91 1.24.88 2.84.88 4.31v4.8c0 1.3-.27 2.33 1.35 2.48.31 0 .85 0 .85.39s-.15.33-.36.33c-1 0-1.93-.12-2.84-.12s-1.93.12-2.87.12c-.21 0-.42-.06-.42-.3 0-.45.51-.39.85-.42 1.63-.15 1.35-1.18 1.35-2.48v-5.22a5.92 5.92 0 0 0 -.51-3 3.32 3.32 0 0 0 -2.87-1.35 4.13 4.13 0 0 0 -3 1.29 3.24 3.24 0 0 0 -.91 2.78v5.49c0 1.3-.27 2.33 1.36 2.48.3 0 .84 0 .84.39s-.15.33-.36.33c-1 0-1.93-.12-2.84-.12s-1.93.12-2.86.12c-.22 0-.43-.06-.43-.3 0-.45.52-.39.85-.42 1.64-.15 1.38-1.15 1.38-2.47v-13.68c0-1.12.27-2.44-1.18-2.44-.27 0-.78.09-.78-.31 0-.21.24-.3.42-.33a7.86 7.86 0 0 0 2.71-.93 1.33 1.33 0 0 1 .64-.34c.3 0 .27.25.27.49z"/><path d="m42.16 48.68c0 1.3-.27 2.33 1.36 2.48.3 0 .85 0 .85.39s-.15.33-.37.33c-1 0-1.93-.12-2.83-.12s-1.93.12-2.87.12c-.21 0-.42-.06-.42-.3 0-.45.51-.39.84-.42 1.63-.15 1.36-1.18 1.36-2.48v-5.68c0-.42 0-1.6-.3-1.93a1.31 1.31 0 0 0 -.88-.24h-.39c-.18 0-.36-.06-.36-.25 0-.36.42-.42.69-.51a6.63 6.63 0 0 0 2.51-1.57c.15-.15.3-.39.54-.39s.27.27.27.48zm-2.35-14.68a1.42 1.42 0 0 1 1.36-1.5 1.49 1.49 0 0 1 -.06 3 1.32 1.32 0 0 1 -1.3-1.5"/><path d="m51.21 48.68c0 1.3-.27 2.33 1.36 2.48.3 0 .84 0 .84.39s-.15.33-.36.33c-1 0-1.93-.12-2.84-.12s-1.93.12-2.86.12c-.21 0-.43-.06-.43-.3 0-.45.52-.39.85-.42 1.63-.16 1.36-1.16 1.36-2.48v-13.68c0-1.12.27-2.44-1.18-2.44-.27 0-.78.09-.78-.31 0-.21.24-.3.42-.33a7.86 7.86 0 0 0 2.71-.93 1.38 1.38 0 0 1 .64-.34c.3 0 .27.25.27.49z"/><path d="m69 49c0 .33-.12 1.53.45 1.53s1.15-1.05 1.42-1.05.18.24.15.36v.39c0 .4-.15.4-.51.52l-2.51.89a1.67 1.67 0 0 1 -.63.27c-.33 0-.3-.66-.33-.84s0-1-.3-1c-.46 0-2.21 2-4.65 2a6.75 6.75 0 0 1 -6.52-7 6.57 6.57 0 0 1 2.11-4.86 7.23 7.23 0 0 1 5.16-2.17 10.41 10.41 0 0 1 3.23.63 2.16 2.16 0 0 0 .58.18c.36 0 .24-.93.24-1.11v-2.74c0-1.12.27-2.44-1.18-2.44-.27 0-.78.09-.78-.31 0-.21.24-.3.42-.33a8 8 0 0 0 2.72-.93 1.3 1.3 0 0 1 .63-.34c.3 0 .27.25.27.49zm-2.1-6.56c0-.94.06-2.09-.73-2.81a4.38 4.38 0 0 0 -3.11-1 5.8 5.8 0 0 0 -5.25 6c0 3 1.88 6.13 5.23 6.13a4.82 4.82 0 0 0 3.56-1.42c.39-.48.3-.91.3-1.51z"/><path d="m75.49 43c0-.42 0-1.6-.3-1.93a1.28 1.28 0 0 0 -.87-.24h-.4c-.18 0-.36-.06-.36-.25 0-.36.43-.42.7-.51a6.67 6.67 0 0 0 2.5-1.57c.15-.15.3-.39.55-.39s.27.27.27.48v1.48c0 .12-.06.64.15.64s1.48-2.42 3.56-2.42a1.55 1.55 0 0 1 1.71 1.46 1.17 1.17 0 0 1 -1.26 1.25c-1 0-1.08-1.15-1.93-1.15-.66 0-1.18.63-1.54 1.09a4.42 4.42 0 0 0 -.69 3v4.77c0 1.3-.27 2.33 1.36 2.48.3 0 .84 0 .84.39s-.15.33-.36.33c-1 0-1.93-.12-2.84-.12s-1.93.12-2.87.12c-.21 0-.42-.06-.42-.3 0-.45.51-.39.85-.42 1.63-.15 1.35-1.18 1.35-2.48z"/><path d="m88 43.55c-.93 0-1.23-.06-1.23.94 0 3.38 2.2 6.31 5.85 6.31 3 0 4.08-2 4.47-2a.24.24 0 0 1 .24.25c0 .36-1 1.17-1.18 1.35a7.06 7.06 0 0 1 -11.65-5.25 6.13 6.13 0 0 1 2.18-5 8.07 8.07 0 0 1 5.43-2 4.94 4.94 0 0 1 5.41 4.85c0 .24-.06.51-.36.51zm2.48-.72a19.24 19.24 0 0 0 3.5-.24c.67-.15 1.12-.49 1.12-1.21a2.8 2.8 0 0 0 -.79-1.78 3.54 3.54 0 0 0 -2.62-.94 4.87 4.87 0 0 0 -3.93 2 3.94 3.94 0 0 0 -.76 1.78c0 .48.69.39 1 .39z"/><path d="m102.47 43c0-.42 0-1.6-.3-1.93a1.3 1.3 0 0 0 -.88-.24h-.39c-.18 0-.36-.06-.36-.25 0-.36.42-.42.69-.51a6.63 6.63 0 0 0 2.51-1.57c.15-.15.3-.39.54-.39s.27.27.27.48v2c.52 0 2.21-2.47 5-2.47a4.29 4.29 0 0 1 3.57 1.63c1 1.24.9 2.72.9 4.16v4.77c0 1.3-.27 2.33 1.36 2.48.3 0 .85 0 .85.39s-.16.33-.37.33c-1 0-1.93-.12-2.83-.12s-1.94.12-2.87.12c-.21 0-.43-.06-.43-.3 0-.45.52-.39.85-.42 1.63-.15 1.36-1.18 1.36-2.48v-4.8a5.58 5.58 0 0 0 -.54-3 3.35 3.35 0 0 0 -2.84-1.36 4.11 4.11 0 0 0 -3 1.3 3.26 3.26 0 0 0 -1 2.77v5.07c0 1.3-.27 2.33 1.36 2.48.3 0 .85 0 .85.39s-.15.33-.36.33c-1 0-1.94-.12-2.84-.12s-1.93.12-2.87.12c-.21 0-.42-.06-.42-.3 0-.45.51-.39.84-.42 1.63-.15 1.36-1.18 1.36-2.48z"/><path d="m121.84 48.11c0-.24.06-.66.4-.66 1.08 0-.16 4.13 4 4.13 1.78 0 3.68-1 3.68-3 0-1.75-1.45-2.41-2.9-2.89-1.87-.61-4.61-1.36-4.61-3.81a3.41 3.41 0 0 1 1.6-2.8 5.91 5.91 0 0 1 3.56-1 10.94 10.94 0 0 1 3.11.51c.51.24.33.91.33 1.36 0 .18.21 1.48-.3 1.48-.76 0-.43-2.84-3.69-2.84-1.23 0-2.77.85-2.77 2.24 0 3.53 7.54 1.93 7.54 6.85 0 2.9-3.17 4.4-5.73 4.4a10.26 10.26 0 0 1 -3.84-.9c-.48-.21-.42-.6-.42-1.09z"/><path d="m21.63 66.55c0 .71 0 .9.64.91.09 0 .25 0 .25.14s-.07.14-.16.14c-.38 0-.73 0-1.11 0s-.75 0-1.12 0c-.09 0-.17 0-.17-.14s.16-.14.24-.14c.7 0 .65-.22.65-.91v-4.49c0-.69 0-.9-.65-.9-.08 0-.24 0-.24-.14s.07-.15.17-.15h1.1s.75 0 1.13 0c.09 0 .16 0 .16.15s-.16.14-.25.14c-.69 0-.64.21-.64.9v1.42c0 .41 0 .41.34.41h2.77c.32 0 .34 0 .34-.41v-1.42c0-.69.05-.9-.64-.9-.09 0-.25 0-.25-.14s.07-.15.17-.15h1.11s.75 0 1.12 0c.09 0 .17 0 .17.15s-.17.14-.26.14c-.69 0-.64.21-.64.9v4.49c0 .71 0 .9.64.91.09 0 .26 0 .26.14s-.08.14-.17.14c-.37 0-.73 0-1.1 0s-.75 0-1.13 0c-.09 0-.17 0-.17-.14s.16-.14.25-.14c.69 0 .64-.22.64-.91v-2c0-.41 0-.41-.34-.41h-2.74c-.34 0-.37 0-.37.41z"/><path d="m29.85 67.62c-1.12 0-1.74-1.35-1.74-2.43s.61-2.19 1.7-2.19 1.71 1.26 1.71 2.37-.6 2.3-1.67 2.3m0 .21a2.49 2.49 0 0 0 2.45-2.59 2.57 2.57 0 0 0 -.77-1.86 2.53 2.53 0 0 0 -3.46.09 2.59 2.59 0 0 0 -.67 1.77 2.49 2.49 0 0 0 2.45 2.59"/><path d="m32.93 66.37c0-.09 0-.24.12-.24.36 0 0 1.5 1.3 1.5a1.12 1.12 0 0 0 1.21-1.07c0-.64-.47-.88-1-1.06s-1.46-.5-1.46-1.38a1.26 1.26 0 0 1 .52-1 1.84 1.84 0 0 1 1.17-.36 3.22 3.22 0 0 1 1 .18c.16.09.1.33.1.5s.07.54-.09.54-.14-1-1.21-1a.89.89 0 0 0 -.91.82c0 1.28 2.47.7 2.47 2.49a1.76 1.76 0 0 1 -1.88 1.6 3 3 0 0 1 -1.27-.39c-.15-.08-.13-.22-.13-.39z"/><path d="m41.14 65.38a2 2 0 0 1 -1.84 2.25 1.39 1.39 0 0 1 -.86-.31 1.46 1.46 0 0 1 -.31-1.08v-1.7a1.25 1.25 0 0 1 .16-.76 1.31 1.31 0 0 1 1.12-.57 1.63 1.63 0 0 1 1.2.57 2.45 2.45 0 0 1 .53 1.6m-3.7 3.67c0 .47.09.84-.44.9-.11 0-.28 0-.28.15s.07.11.14.11h.94s.61 0 .93 0a.11.11 0 0 0 .12-.12c0-.14-.18-.13-.28-.14-.53-.06-.44-.43-.44-.9v-1.18c0-.06 0-.33.08-.33a1.8 1.8 0 0 1 .22.06 2.61 2.61 0 0 0 1 .23 2.46 2.46 0 0 0 2.47-2.59 2.67 2.67 0 0 0 -.61-1.73 2.05 2.05 0 0 0 -1.49-.77 2.55 2.55 0 0 0 -1.66.78v-.6c0-.08 0-.18-.09-.18s-.13.09-.18.14a2.1 2.1 0 0 1 -.82.57c-.09 0-.23.06-.23.19s.06.09.12.09h.13c.08 0 .23 0 .28.09s.1.54.1.7z"/><path d="m43.93 66.58c0 .47-.08.84.45.9.1 0 .28 0 .28.14a.11.11 0 0 1 -.12.12c-.32 0-.63 0-.93 0s-.64 0-.94 0c-.07 0-.14 0-.14-.11s.17-.14.28-.15c.53-.06.44-.43.44-.9v-2.07c0-.15 0-.58-.1-.7a.4.4 0 0 0 -.28-.08h-.13c-.06 0-.12 0-.12-.09s.14-.16.23-.19a2.29 2.29 0 0 0 .82-.57c0-.05.1-.14.18-.14s.08.1.08.17zm-.77-5.32a.5.5 0 0 1 .44-.55.48.48 0 0 1 .42.53c0 .29-.15.55-.44.55s-.42-.24-.42-.53"/><path d="m46.17 66.13c0 .47 0 1.28.59 1.28.36 0 .63-.38.71-.38a.08.08 0 0 1 .07.07.51.51 0 0 1 -.2.31 1.32 1.32 0 0 1 -.92.42.87.87 0 0 1 -.71-.34 2.43 2.43 0 0 1 -.22-1.36v-2.82c0-.24-.06-.2-.25-.2s-.3 0-.3-.09.07-.12.11-.17a2.44 2.44 0 0 0 1-1.1s0-.1.09-.1.08.06.08.13v.78c0 .14 0 .21.16.22h1c.09 0 .09.07.09.15s-.08.18-.31.18h-.55c-.23 0-.37-.07-.37.24z"/><path d="m50.33 65.14a.49.49 0 0 1 .11 0c.1 0 .07.26.07.31v.65a1 1 0 0 1 -.25.83 1.26 1.26 0 0 1 -.92.44.63.63 0 0 1 -.68-.65 1.22 1.22 0 0 1 .77-1zm-.95.29c-.54.3-1.46.76-1.46 1.54a.89.89 0 0 0 .93.86c.86 0 1.5-.83 1.59-.83s.19.76.68.76a1.22 1.22 0 0 0 .7-.32c.07-.06.23-.21.23-.34s-.05-.1-.05-.1-.2.27-.45.27-.35-.64-.35-.88v-2.56c0-.3 0-.58-.19-.8a1.24 1.24 0 0 0 -.9-.29 2.6 2.6 0 0 0 -1.77.76 1.21 1.21 0 0 0 -.42.78c0 .11.05.13.13.13a1.11 1.11 0 0 0 .43-.15c.15-.07.2-.23.27-.39.23-.56.54-.92 1.14-.92s.63.45.63 1v.48c0 .42 0 .43-.36.61z"/><path d="m53.93 66.58c0 .47-.09.84.45.9.09 0 .27 0 .27.14a.11.11 0 0 1 -.12.12c-.31 0-.63 0-.93 0s-.63 0-.93 0c-.07 0-.14 0-.14-.11s.17-.14.27-.15c.54-.06.45-.43.45-.9v-5c0-.41.09-.89-.39-.89-.09 0-.25 0-.25-.11s.08-.11.13-.12a2.53 2.53 0 0 0 .89-.34s.14-.12.21-.12.09.09.09.17z"/><path d="m21.59 6.19c0-1.93.15-2.5-2-2.5-.27 0-.75 0-.75-.36s.21-.46.54-.46c1 0 2 .12 2.95.12 1.75 0 3.44-.12 5.16-.12 2.86 0 5.7 1.42 5.7 4.58 0 2.74-2.27 4.34-4.77 4.67 1 .15 1.42 1.2 1.84 2l2.44 4.7c.55 1.05 1 2.2 2.32 2.2.25 0 .79 0 .79.42s-.3.33-.54.33h-3.2c-.6 0-.78-.57-1-1l-2.95-5.88c-1.09-2.11-1.05-2.35-3.35-2.35-.24 0-.51 0-.66.15s-.11.91-.11 1.18v4.64c0 1.92-.12 2.47 2 2.5.27 0 .78 0 .78.36s-.24.39-.51.39c-1.15 0-2.23-.12-3.38-.12s-2.29.12-3.43.12c-.27 0-.51-.06-.51-.39s.48-.36.75-.36c2.11 0 2-.61 2-2.5zm2.41 5.12c0 .75 1 .54 1.54.54a5.75 5.75 0 0 0 3.77-1 3.66 3.66 0 0 0 1.38-3.07c-.03-2.78-1.69-4.27-4.37-4.27-2.32 0-2.32.3-2.32 2.4z"/><path d="m43.44 14.32c1.09-.51 1.12-.54 1.12-1.69v-1.32c0-1.48-.06-2.72-1.93-2.72s-2.77 1-3.46 2.54c-.22.45-.37.87-.85 1.08a3.78 3.78 0 0 1 -1.3.39c-.24 0-.39-.06-.39-.36a3.29 3.29 0 0 1 1.27-2.14 8.44 8.44 0 0 1 5.39-2.1 4.12 4.12 0 0 1 2.71.81c.72.6.6 1.38.6 2.2v7.1c0 .67 0 2.41 1.06 2.41.75 0 1.08-.75 1.35-.75a.24.24 0 0 1 .22.24c0 .33-.52.75-.73.93a3.92 3.92 0 0 1 -2.14.88c-1.48 0-1.63-2.11-2-2.11s-2.24 2.29-4.86 2.29a2.6 2.6 0 0 1 -2.84-2.38c0-2.14 2.81-3.4 4.46-4.22zm-2.16 1.68c-1.18.6-2.36 1.38-2.36 2.83a1.85 1.85 0 0 0 2.08 1.78 4.08 4.08 0 0 0 2.81-1.2 2.63 2.63 0 0 0 .75-2.26v-1.81c0-.12.09-.84-.21-.84a1.46 1.46 0 0 0 -.33.12z"/><path d="m64.49 18.84c0 .33-.12 1.53.45 1.53s1.15-1.05 1.42-1.05.18.24.15.36v.39c0 .39-.15.39-.51.51l-2.45.94a1.67 1.67 0 0 1 -.63.27c-.33 0-.3-.66-.33-.85s0-1-.3-1-2.2 2-4.65 2a6.73 6.73 0 0 1 -6.51-7 6.59 6.59 0 0 1 2.11-4.85 7.28 7.28 0 0 1 5.13-2.09 10.13 10.13 0 0 1 3.22.64 2.27 2.27 0 0 0 .58.18c.36 0 .24-.94.24-1.12v-2.84c0-1.11.27-2.44-1.18-2.44-.27 0-.78.09-.78-.3 0-.21.24-.3.42-.33a7.67 7.67 0 0 0 2.71-.94 1.36 1.36 0 0 1 .64-.33c.3 0 .27.24.27.48zm-2.08-6.51c0-.93.06-2.08-.73-2.8a4.36 4.36 0 0 0 -3.1-1 5.79 5.79 0 0 0 -5.25 6c0 3 1.87 6.11 5.22 6.11a4.81 4.81 0 0 0 3.56-1.41c.39-.48.3-.91.3-1.51z"/><path d="m78.42 11.37a4 4 0 0 0 .42-1.27c0-.9-.94-1.08-1.6-1.08-.24 0-.69 0-.69-.21a.4.4 0 0 1 .45-.39h4.79a.41.41 0 0 1 .46.42c0 .15-.43.15-.67.18a2.2 2.2 0 0 0 -1.29.69 17.51 17.51 0 0 0 -1.66 3.22l-6.09 14.28c-.3 1-.33 1.21-1.48 1.21-.75 0-1.69 0-1.69-1 0-.72.15-1.17 1-1.17a6.59 6.59 0 0 0 1.32-.06c.52-.12.64-.67.82-1.09l1-2.38a2.4 2.4 0 0 0 .27-.9 4.21 4.21 0 0 0 -.42-1.3l-4-9.39c-.36-.91-.71-2.13-1.89-2.13-.24 0-.72 0-.72-.21s.33-.39.57-.39h5.82a.38.38 0 0 1 .42.39c0 .18-.45.21-.72.21-.51 0-1.54.15-1.54.9a3.67 3.67 0 0 0 .36 1.24l3.34 8.09z"/><path d="m21.33 77.15c-.72-.35-1.43-.8-1.43-1.77a1.85 1.85 0 0 1 1.91-1.85 3.58 3.58 0 0 1 1.32.24c.19.07.17.2.18.4s0 .57 0 .86a.12.12 0 0 1 -.11.13c-.11 0-.13-.18-.16-.25-.22-.76-.51-1.17-1.28-1.17a1.17 1.17 0 0 0 -1.28 1.18c0 .94 1.09 1.32 1.73 1.63a3 3 0 0 1 1 .68 2.07 2.07 0 0 1 -.21 2.86 2.32 2.32 0 0 1 -1.58.57 3 3 0 0 1 -1.49-.43c-.17-.12-.14-.42-.14-.61a8 8 0 0 1 0-.85c0-.09 0-.22.15-.22s.13.28.14.36c.1 1 .55 1.54 1.45 1.54a1.44 1.44 0 0 0 1.47-1.45 1.75 1.75 0 0 0 -1.2-1.63z"/><path d="m26.68 77.86c.36-.18.37-.19.37-.61v-.48c0-.54 0-1-.64-1s-.9.36-1.13.92c-.07.17-.12.32-.28.4a1.23 1.23 0 0 1 -.42.14c-.08 0-.13 0-.13-.13a1.27 1.27 0 0 1 .41-.78 2.63 2.63 0 0 1 1.77-.75 1.26 1.26 0 0 1 .9.28c.24.22.2.5.2.8v2.59c0 .23 0 .87.34.87s.36-.27.45-.27.06 0 .06.08-.16.28-.23.34a1.22 1.22 0 0 1 -.7.32c-.49 0-.54-.76-.67-.76s-.73.83-1.59.83a.88.88 0 0 1 -.93-.87c0-.78.92-1.24 1.46-1.53zm-.71.62a1.2 1.2 0 0 0 -.77 1 .63.63 0 0 0 .68.64 1.25 1.25 0 0 0 .92-.44 1 1 0 0 0 .25-.82v-.65s0-.31-.07-.31a.49.49 0 0 0 -.11 0z"/><path d="m29.78 77.35c0-.15 0-.58-.1-.7s-.21-.09-.29-.09h-.13c-.05 0-.11 0-.11-.09s.13-.15.22-.18a2.33 2.33 0 0 0 .82-.57c0-.06.1-.14.18-.14s.09.09.09.17v.72c.17 0 .72-.89 1.62-.89a1.33 1.33 0 0 1 1.16.59 2.45 2.45 0 0 1 .3 1.51v1.73c0 .47-.09.84.44.9.1 0 .28 0 .28.14a.11.11 0 0 1 -.12.12c-.32 0-.63 0-.93 0s-.63 0-.94 0c-.07 0-.13 0-.13-.11s.16-.14.27-.15c.53-.06.45-.43.45-.9v-1.74a2.22 2.22 0 0 0 -.18-1.09 1 1 0 0 0 -.93-.49 1.34 1.34 0 0 0 -1.29 1.48v1.84c0 .47-.09.84.44.9.1 0 .28 0 .28.14a.11.11 0 0 1 -.12.12c-.32 0-.63 0-.93 0s-.63 0-.93 0c-.07 0-.14 0-.14-.11s.16-.14.27-.15c.54-.06.45-.43.45-.9z"/><path d="m38.7 74.83c0-.33 0-.78-.33-.78a3.17 3.17 0 0 0 -.49.12.11.11 0 0 1 -.11-.12c0-.39 2.44-.52 2.83-.52a3.86 3.86 0 0 1 2.53.85 3.5 3.5 0 0 1 1.25 2.62 3.7 3.7 0 0 1 -1.06 2.63 3.46 3.46 0 0 1 -2.56.9c-.73 0-1.46 0-2.17 0-.22 0-.42 0-.62 0s-.17 0-.17-.15.16-.12.25-.12c.69 0 .65-.24.65-1zm.77 4.33c0 1 .2 1.2 1.06 1.2a2.56 2.56 0 0 0 2.13-.86 3.72 3.72 0 0 0 .82-2.36 3 3 0 0 0 -3-3.36c-.21 0-.7 0-.85.18a1.26 1.26 0 0 0 -.11.65z"/><path d="m46.52 79.41c0 .47-.09.84.44.9.1 0 .28 0 .28.14a.11.11 0 0 1 -.12.12c-.31 0-.63 0-.93 0s-.63 0-.93 0c-.07 0-.14 0-.14-.11s.17-.14.27-.15c.54-.06.45-.43.45-.9v-2.06c0-.15 0-.58-.1-.7s-.21-.09-.29-.09h-.12c-.06 0-.12 0-.12-.09s.14-.15.22-.18a2.25 2.25 0 0 0 .82-.57c0-.06.1-.14.18-.14s.09.09.09.17zm-.77-5.32a.5.5 0 0 1 .44-.54.48.48 0 0 1 .42.52c0 .3-.15.55-.44.55s-.42-.24-.42-.53"/><path d="m48.87 77.55c-.31 0-.41 0-.41.34a2.06 2.06 0 0 0 1.92 2.28 2.22 2.22 0 0 0 1.46-.71.09.09 0 0 1 .08.09c0 .13-.32.43-.39.49a2.11 2.11 0 0 1 -1.56.62 2.38 2.38 0 0 1 -2.25-2.52 2.34 2.34 0 0 1 .71-1.83 2.53 2.53 0 0 1 1.78-.74 1.74 1.74 0 0 1 1.42.68 2.13 2.13 0 0 1 .37 1.11c0 .09 0 .19-.11.19zm.81-.27a6.19 6.19 0 0 0 1.14-.08.42.42 0 0 0 .36-.44 1.07 1.07 0 0 0 -.25-.65 1.11 1.11 0 0 0 -.86-.34 1.52 1.52 0 0 0 -1.28.74 1.42 1.42 0 0 0 -.25.63c0 .18.23.14.34.14z"/><path d="m56.94 76c.24 0 .32 0 .34.24v.18a1.12 1.12 0 0 1 -.36 0s-.41-.06-.41.09a.56.56 0 0 0 .07.18 1.6 1.6 0 0 1 .13.69 1.8 1.8 0 0 1 -.49 1.19 2.06 2.06 0 0 1 -1.41.51 1.48 1.48 0 0 0 -.75.17c-.12 0-.31.12-.31.29s.42.35.59.35h1.07a2.22 2.22 0 0 1 1.16.2 1.1 1.1 0 0 1 .65 1c0 1.43-1.66 1.94-2.69 1.94a2.9 2.9 0 0 1 -1.3-.28 1.1 1.1 0 0 1 -.67-.92.9.9 0 0 1 .54-.81l.28-.18s.33-.19.33-.29-.15-.21-.2-.27-.55-.5-.55-.63 0-.1.1-.11 1-.4 1-.51-1.06-.55-1.06-1.68a1.82 1.82 0 0 1 1.89-1.77 1.84 1.84 0 0 1 1 .26.84.84 0 0 0 .59.14zm-2.88 4.6c-.36.24-.81.55-.81 1.06a1 1 0 0 0 .46.85 1.74 1.74 0 0 0 1 .28c.67 0 1.85-.31 1.85-1.26 0-.78-.73-.93-1.27-.93zm1.94-3.31c0-.66-.38-1.52-1.08-1.52s-1.16.77-1.16 1.54.35 1.56 1.09 1.56 1.15-.78 1.15-1.58"/><path d="m57.8 78.07a2.57 2.57 0 0 1 .67-1.76 2.31 2.31 0 0 1 1.77-.73 2.37 2.37 0 0 1 1.68.63 2.61 2.61 0 0 1 .77 1.86 2.45 2.45 0 1 1 -4.89 0m4.14.08c0-1.11-.56-2.37-1.71-2.37s-1.69 1.12-1.69 2.22.62 2.43 1.73 2.43 1.67-1.26 1.67-2.3"/></g></g></g></svg>